<?xml version="1.0" standalone="no"?>
<!DOCTYPE svg PUBLIC "-//W3C//DTD SVG 20010904//EN"
 "http://www.w3.org/TR/2001/REC-SVG-20010904/DTD/svg10.dtd">
<svg version="1.0" xmlns="http://www.w3.org/2000/svg"
 width="260.000000pt" height="260.000000pt" viewBox="0 0 260.000000 260.000000"
 preserveAspectRatio="xMidYMid meet">
<metadata>
Created by potrace 1.11, written by Peter Selinger 2001-2013
</metadata>
<g transform="translate(0.000000,260.000000) scale(0.100000,-0.100000)"
fill="#000000" stroke="none">
<path d="M473 2436 c3 -7 15 -47 27 -87 50 -172 89 -273 138 -354 90 -151 346
-561 356 -573 9 -9 12 42 11 220 -2 334 -17 376 -196 515 -121 95 -137 108
-246 214 -81 78 -100 92 -90 65z"/>
<path d="M1744 1563 l1 -328 -368 0 c-202 0 -367 2 -368 5 0 3 -2 12 -4 21 -1
8 -67 118 -145 245 -78 126 -163 262 -187 302 -25 39 -47 72 -49 72 -2 0 -4
-393 -4 -874 l0 -875 190 -1 190 0 1 22 c0 13 1 184 1 381 l1 357 41 0 c335 2
689 0 694 -5 3 -3 6 -173 6 -378 l1 -372 188 -2 c103 -1 188 1 189 5 0 4 2
400 3 880 l1 872 -191 0 -192 0 1 -327z"/>
</g>
</svg>
