<?xml version="1.0" encoding="UTF-8" standalone="no"?>
<svg width="323px" height="331px" viewBox="0 0 323 331" version="1.1" xmlns="http://www.w3.org/2000/svg" xmlns:xlink="http://www.w3.org/1999/xlink">
    <!-- Generator: Sketch 39.1 (31720) - http://www.bohemiancoding.com/sketch -->
    <title>Shape</title>
    <desc>Created with Sketch.</desc>
    <defs></defs>
    <g id="Page-1" stroke="none" stroke-width="1" fill="none" fill-rule="evenodd">
        <g id="emptystate-arrow" transform="translate(-8.000000, -34.000000)" fill="#666666">
            <g id="Page-1">
                <g id="Producten">
                    <path d="M24.251789,76.307123 L29.980217,64.459979 L29.826777,64.354835 L27.036441,69.055045 L26.630109,68.810657 C33.185408,53.263589 41.482536,38.68839 51.171989,24.863407 C51.274283,24.718479 51.637992,24.752579 52.237545,24.633227 L48.282202,31.737535 C51.893726,27.432324 53.681018,21.885281 57.943241,17.832983 C58.244255,18.288202 58.514788,18.762861 58.753063,19.253845 C59.545837,21.217476 61.148432,22.547402 62.44699,24.118875 C63.075519,24.893237 63.625673,25.728057 64.089366,26.611066 C67.894111,33.755159 71.877868,40.819683 75.395623,48.097336 C78.095031,53.689848 80.200569,59.572215 82.561841,65.326704 C83.244071,66.924409 83.824885,68.563547 84.300828,70.234361 L83.465432,69.546664 C83.820617,70.492957 84.110448,71.10677 84.280937,71.751841 C84.599183,72.962415 84.863441,74.187198 85.104967,75.417664 C85.150431,75.650685 84.974259,75.926332 84.903222,76.179246 C84.647488,76.022951 84.280937,75.932016 84.150229,75.704678 C82.659398,73.099765 81.190352,70.482538 79.743091,67.852996 C79.260039,66.980587 78.828133,66.082603 78.13197,65.295446 L80.447778,70.782813 L80.018714,70.961842 C72.375128,58.174087 65.385082,45.042484 60.864284,30.711673 L60.39544,30.802608 C60.269604,31.073211 60.182555,31.360209 60.136865,31.655125 C60.136865,34.434331 60.162438,37.213536 60.170963,39.992741 C60.170963,43.51932 60.153914,47.043057 60.188012,50.569635 C60.287463,60.27412 60.344293,69.981447 60.574453,79.683091 C60.6256,81.868376 60.168121,83.846215 59.702118,85.934882 C59.298628,87.736534 59.614032,89.731424 59.787363,91.618328 C60.242,96.597028 60.72221,101.56436 61.330287,106.540217 C61.705363,109.603595 62.407209,112.627189 62.839114,115.687725 C64.485279,127.370996 66.672273,138.951019 69.400096,150.427792 C69.50773,151.019331 69.715282,151.588226 70.013856,152.110092 L64.992958,127.083035 L65.436229,126.994942 C65.834036,129.146126 66.220478,131.300152 66.62681,133.448495 C68.780653,144.789813 71.36356,156.037354 74.867107,167.034823 C77.930225,176.639847 81.212137,186.190879 84.775355,195.631084 C89.833193,208.987184 95.945221,221.914183 103.503563,234.051183 C109.220625,243.235633 115.437787,252.11886 121.555498,261.047554 C129.278646,272.30362 138.215107,282.565083 147.600522,292.457122 C155.215693,300.48499 163.120696,308.194585 171.812789,315.054505 C177.230548,319.330352 182.713662,323.523788 188.262129,327.634814 C208.305942,342.411776 229.867108,354.599927 252.613171,364.705095 C257.938108,367.069409 263.336924,369.268902 268.670386,371.607641 C249.515956,364.503332 231.185555,355.620105 213.397878,345.594506 C242.5458,363.23024 273.961225,375.648571 306.271717,386.066329 C303.194392,385.250754 300.117067,384.443705 297.042583,383.613922 C295.741184,383.261548 294.485249,382.707412 293.149753,382.517016 C286.014792,381.482629 279.351516,378.791517 272.497862,376.771052 C255.005699,371.619008 238.741056,363.622398 222.627012,355.284782 C212.996777,350.312334 203.660363,344.79028 194.663988,338.745953 C188.566167,334.642504 182.53749,330.435806 176.577955,326.125859 C164.174886,317.163064 152.85158,306.941385 142.178974,296.003593 C133.603381,287.208459 125.445487,278.035376 118.114463,268.154704 C104.863956,250.32506 93.612375,231.0934 84.562244,210.805887 C77.842381,195.686157 72.297393,180.071088 67.976514,164.099323 C63.597316,148.189081 60.414498,131.973471 58.454708,115.588264 C57.318115,105.829787 56.911783,95.980374 55.741092,86.230421 C54.507889,75.9718 55.420005,65.701812 54.942636,55.451716 C54.760781,51.544347 54.391388,47.645502 54.297619,43.738133 C54.220899,40.526985 54.487999,37.312996 54.473791,34.099007 C54.473791,32.990735 54.078825,31.885305 53.862873,30.779874 L53.20649,30.680414 C46.642667,45.568202 38.453516,59.509697 29.034003,72.737919 L29.573885,71.524503 C27.72408,73.05335 27.164308,75.829714 24.572876,76.568562 L24.251789,76.307123 L24.251789,76.307123 Z M56.391792,86.11391 L56.008192,86.156536 C56.77255,98.162817 58.139303,110.10658 59.986266,121.993509 L56.391792,86.11391 L56.391792,86.11391 Z M60.793247,27.020275 L60.446586,27.170886 C61.355861,30.268364 63.083482,33.010627 64.61504,35.838142 L60.793247,27.020275 L60.793247,27.020275 Z" id="Shape" transform="translate(165.261753, 201.949656) rotate(-8.000000) translate(-165.261753, -201.949656) "></path>
                </g>
            </g>
        </g>
    </g>
</svg>