<?xml version="1.0" encoding="UTF-8" standalone="no"?>
<svg width="16px" height="16px" viewBox="0 0 16 16" version="1.1" xmlns="http://www.w3.org/2000/svg" xmlns:xlink="http://www.w3.org/1999/xlink">
    <!-- Generator: Sketch 39.1 (31720) - http://www.bohemiancoding.com/sketch -->
    <title>1472150715_edit</title>
    <desc>Created with Sketch.</desc>
    <defs></defs>
    <g id="Page-1" stroke="none" stroke-width="1" fill="none" fill-rule="evenodd">
        <g id="1472150715_edit" transform="translate(8.000000, 8.000000) rotate(-270.000000) translate(-8.000000, -8.000000) translate(-0.000000, 0.000000)" fill="#2F3435">
            <g id="Group">
                <path d="M3.78988679,15.0147925 L14.4217358,4.3829434 L11.6170566,1.57841509 L0.985056604,12.2102642 C0.928,12.2558491 0.883773585,12.3183396 0.863849057,12.3944151 L0.0372830189,15.5344906 C0.0357735849,15.5405283 0.0357735849,15.5468679 0.0344150943,15.5527547 C0.0316981132,15.5651321 0.0300377358,15.5772075 0.0285283019,15.5900377 C0.0274716981,15.6013585 0.0271698113,15.6122264 0.0271698113,15.6235472 C0.0270188679,15.6351698 0.0273207547,15.6457358 0.0285283019,15.6575094 C0.0300377358,15.6701887 0.0316981132,15.682566 0.0344150943,15.6946415 C0.0356226415,15.7006792 0.0356226415,15.7070189 0.0372830189,15.7129057 C0.0383396226,15.717283 0.0404528302,15.7212075 0.0419622642,15.725434 C0.0454339623,15.7372075 0.0499622642,15.7486792 0.0549433962,15.7601509 C0.0593207547,15.7702642 0.0635471698,15.7803774 0.0685283019,15.7897358 C0.0741132075,15.7996981 0.0801509434,15.8089057 0.0867924528,15.8182642 C0.0929811321,15.8277736 0.0993207547,15.837283 0.106415094,15.8460377 C0.113509434,15.8549434 0.121509434,15.8624906 0.129358491,15.8704906 C0.137358491,15.8786415 0.145207547,15.8863396 0.153962264,15.893434 C0.162415094,15.9006792 0.171924528,15.9070189 0.181433962,15.9132075 C0.190943396,15.9196981 0.200150943,15.9258868 0.210415094,15.9313208 C0.219773585,15.9363019 0.229735849,15.9406792 0.239849057,15.9449057 C0.251320755,15.9498868 0.262641509,15.9544151 0.274566038,15.9580377 C0.278792453,15.9593962 0.282716981,15.9615094 0.28709434,15.962717 C0.293132075,15.9642264 0.299320755,15.9642264 0.305358491,15.9657358 C0.317584906,15.9683019 0.329811321,15.9699623 0.342490566,15.9713208 C0.354113208,15.9726792 0.364830189,15.9729811 0.376301887,15.9728302 C0.387622642,15.9728302 0.398490566,15.9726792 0.409962264,15.9716226 C0.422641509,15.9699623 0.435018868,15.9683019 0.447245283,15.9657358 C0.453283019,15.9642264 0.459622642,15.9642264 0.465509434,15.962717 L3.60573585,15.1363019 C3.68196226,15.1163774 3.74460377,15.0721509 3.78988679,15.0147925 L3.78988679,15.0147925 Z M1.30581132,14.6941887 C1.2250566,14.613434 1.11456604,14.5815849 1.00935849,14.5962264 L1.48981132,12.770717 L3.22958491,14.5103396 L1.40377358,14.9906415 C1.41856604,14.885434 1.38686792,14.7749434 1.30581132,14.6941887 L1.30581132,14.6941887 Z" id="Shape"></path>
                <path d="M14.8984151,3.90626415 L12.0938868,1.10158491 L13.1681509,0.0273207547 C13.1681509,0.0273207547 15.0784906,0.708679245 15.9726792,2.83215094 L14.8984151,3.90626415 L14.8984151,3.90626415 Z" id="Shape"></path>
            </g>
        </g>
    </g>
</svg>